<svg width="29" height="29" viewBox="0 0 29 29" fill="none" xmlns="http://www.w3.org/2000/svg">
<path d="M16.2308 0C18.7518 0 19.2843 0.029372 20.5721 0.0870284C22.0563 0.159915 23.0793 0.40577 23.9616 0.769114C24.886 1.13137 25.6706 1.6394 26.4405 2.4368C27.2252 3.2342 27.701 4.04682 28.0655 5.00414C28.4153 5.91794 28.64 6.97642 28.7094 8.52879C28.7797 9.9071 28.7934 10.4434 28.7934 13.3447V15.6651C28.7934 18.5664 28.7797 19.1028 28.7094 20.4811C28.6852 21.7484 28.451 22.9505 28.0413 24.0645L28.0644 23.9916C27.6999 24.9489 27.2241 25.7615 26.4542 26.5589C25.6696 27.3715 24.886 27.8643 23.9616 28.2418C23.0793 28.6041 22.0573 28.8369 20.5721 28.9087C19.2412 28.9816 18.7097 28.9957 15.9084 28.9957H13.6816C10.8802 28.9957 10.3624 28.9816 9.01788 28.9087C7.79418 28.8837 6.63351 28.6411 5.55792 28.2168L5.6283 28.2407C4.6588 27.8567 3.83215 27.29 3.15045 26.5731L3.1494 26.572C2.44985 25.8627 1.89735 25.0011 1.54022 24.0384L1.52446 23.9894C1.13897 22.9494 0.904736 21.7462 0.880578 20.4898V20.4789C0.824907 19.3453 0.793396 18.0171 0.793396 16.6823C0.793396 16.4364 0.794446 16.1906 0.796547 15.9458V15.9828V13.0097C0.796547 10.3988 0.824907 9.84727 0.880578 8.51356C0.950953 6.97642 1.18834 5.91685 1.52446 5.00305C1.88894 4.04574 2.36477 3.23311 3.1494 2.43571C3.8269 1.71011 4.65565 1.14116 5.58313 0.783256L5.6283 0.768026C6.63141 0.364432 7.79208 0.116401 9.00527 0.0870284H9.01788C10.3067 0.029372 10.8382 0 13.3591 0H16.2308ZM16.2592 2.61085H13.3318C10.9086 2.61085 10.3907 2.64023 9.13027 2.69788C7.77213 2.75554 7.02951 2.98834 6.53898 3.19068C5.88039 3.45177 5.41822 3.77051 4.92875 4.27854C4.43927 4.78657 4.13046 5.26522 3.87836 5.94622C3.69665 6.45425 3.45821 7.22228 3.40254 8.6441C3.34687 9.94953 3.31851 10.4717 3.31851 12.9955V16.0122C3.31851 18.536 3.34687 19.0581 3.40254 20.3636C3.45821 21.7702 3.68299 22.5393 3.87836 23.0473C4.13046 23.7294 4.43822 24.2081 4.92875 24.715C5.41927 25.2219 5.88144 25.5418 6.53898 25.8029C7.02951 26.0063 7.77108 26.238 9.14392 26.2957C10.5021 26.3685 10.9926 26.3827 14.0177 26.3827H15.5723C18.611 26.3827 19.0879 26.3685 20.4597 26.2957C21.8178 26.238 22.5604 26.0052 23.051 25.8029C23.7096 25.5418 24.1717 25.223 24.6612 24.715C25.1507 24.207 25.4595 23.7283 25.7116 23.0473C25.908 22.5393 26.1317 21.7713 26.1874 20.3636C26.2578 18.9417 26.2714 18.4489 26.2714 15.3018V13.7059C26.2714 10.5587 26.2578 10.0507 26.1874 8.62887C26.1317 7.22228 25.9069 6.45316 25.7116 5.94513C25.4742 5.29133 25.116 4.73326 24.6622 4.27854L24.6612 4.27745C24.22 3.80641 23.6822 3.43545 23.0804 3.19938L23.051 3.18959C22.2821 2.88935 21.3935 2.70985 20.4649 2.69679H20.4597C19.3799 2.64023 18.1163 2.60759 16.8443 2.60759C16.6384 2.60759 16.4325 2.60868 16.2266 2.60977H16.2582L16.2592 2.61085ZM14.8023 7.04931C18.7738 7.04931 21.9943 10.3836 21.9943 14.4979C21.9943 18.6121 18.7749 21.9464 14.8023 21.9464C10.8308 21.9464 7.61037 18.6121 7.61037 14.4979C7.61037 10.3836 10.8298 7.04931 14.8023 7.04931ZM14.8023 9.66016C12.2226 9.66016 10.1313 11.8261 10.1313 14.4979C10.1313 17.1696 12.2226 19.3356 14.8023 19.3356C17.3821 19.3356 19.4734 17.1696 19.4734 14.4979C19.4734 11.8261 17.3821 9.66016 14.8023 9.66016ZM22.2674 5.01828C23.1959 5.01828 23.948 5.79718 23.948 6.75885C23.948 7.72051 23.1959 8.49942 22.2674 8.49942C21.3388 8.49942 20.5868 7.72051 20.5868 6.75885C20.5868 5.79718 21.3388 5.01828 22.2674 5.01828Z" fill="white"/>
</svg>
