<svg width="40" height="47" viewBox="0 0 40 47" fill="none" xmlns="http://www.w3.org/2000/svg">
<g filter="url(#filter0_d_126_19)">
<path d="M5.99 34.47L4.01374 34.1626L4.01213 34.1733L5.99 34.47ZM6.935 29.61L8.88738 30.0439L8.8888 30.0374L6.935 29.61ZM8.42 23.535L10.352 24.052L8.42 23.535ZM10.22 17.145L8.30961 16.553L8.30579 16.5654L8.30213 16.5777L10.22 17.145ZM12.245 11.205L14.1164 11.9106L14.1201 11.9006L12.245 11.205ZM14.225 6.57L12.5609 5.4606L12.4972 5.55609L12.4449 5.65825L14.225 6.57ZM14.675 5.94L13.2608 4.52578L13.1825 4.60411L13.1133 4.69061L14.675 5.94ZM19.49 5.715L20.1923 3.84234L19.8527 3.715H19.49V5.715ZM20.075 6.03L18.8256 7.59174L18.9307 7.67578L19.046 7.74499L20.075 6.03ZM20.525 6.57L22.3051 5.65825L22.2897 5.62821L22.2733 5.59871L20.525 6.57ZM22.505 11.205L20.6298 11.9006L20.6336 11.9106L22.505 11.205ZM24.53 17.145L22.6196 17.7369V17.737L24.53 17.145ZM26.375 23.58L24.4412 24.0903L24.443 24.097L26.375 23.58ZM27.86 29.655L25.9062 30.0824L25.9076 30.0889L27.86 29.655ZM28.76 34.47L26.7783 34.7402L26.7867 34.8015L26.7988 34.8622L28.76 34.47ZM28.85 35.685L30.773 36.2345L30.7731 36.2344L28.85 35.685ZM23.225 35.82L21.51 36.849L21.5631 36.9375L21.625 37.02L23.225 35.82ZM22.91 34.74L20.9396 35.0827L20.9456 35.1175L20.9529 35.152L22.91 34.74ZM22.415 32.31L20.4493 32.6786L20.456 32.7147L20.4641 32.7505L22.415 32.31ZM21.92 29.79L19.9401 30.0728L19.9491 30.1357L19.962 30.1979L21.92 29.79ZM21.785 29.43L20.3708 30.8442L20.6003 31.0737L20.8906 31.2189L21.785 29.43ZM13.37 29.34V27.34H13.2279L13.0872 27.3601L13.37 29.34ZM13.01 29.43L11.5958 28.0158L11.5958 28.0158L13.01 29.43ZM12.875 29.835L10.9347 29.3499L10.9272 29.3799L10.9206 29.4101L12.875 29.835ZM12.335 32.31L10.3812 31.8826L10.376 31.9062L10.3714 31.93L12.335 32.31ZM11.84 34.785L9.88204 34.3771L9.87383 34.4165L9.86721 34.4562L11.84 34.785ZM11.57 35.82L13.17 37.02L13.2319 36.9375L13.285 36.849L11.57 35.82ZM20.48 24.705L18.8159 23.5956L18.7468 23.6992L18.6911 23.8106L20.48 24.705ZM20.48 24.255L18.542 24.749L18.5491 24.7768L18.557 24.8044L20.48 24.255ZM19.22 19.485L17.2881 20.0025L17.2905 20.0112L19.22 19.485ZM17.825 14.94L15.8726 15.3739L15.8993 15.494L15.9406 15.61L17.825 14.94ZM16.88 14.94L14.9826 14.3075L14.9753 14.3296L14.9684 14.3518L16.88 14.94ZM16.025 17.685L14.117 17.0853L14.1092 17.1104L14.102 17.1356L16.025 17.685ZM15.125 20.97L13.1909 20.461L15.125 20.97ZM14.27 24.3L12.3297 23.8149L12.3103 23.8924L12.2972 23.9712L14.27 24.3ZM14.27 24.705L12.3726 25.3375L12.4176 25.4723L12.4811 25.5994L14.27 24.705ZM6.395 34C6.55896 34 6.89776 34.0366 7.24942 34.2828C7.61952 34.5419 7.79726 34.8878 7.86805 35.1356L4.02195 36.2344C4.15274 36.6922 4.43548 37.1956 4.95558 37.5597C5.45724 37.9109 5.99104 38 6.395 38V34ZM7.86805 35.1356C7.90252 35.2562 7.90809 35.3363 7.90873 35.345C7.90982 35.3599 7.90806 35.347 7.90988 35.2978C7.91363 35.1966 7.92908 35.0253 7.96787 34.7667L4.01213 34.1733C3.96092 34.5147 3.92387 34.8459 3.91262 35.1497C3.90279 35.4151 3.90407 35.8219 4.02195 36.2344L7.86805 35.1356ZM7.96623 34.7774C8.16756 33.4832 8.47319 31.9077 8.88737 30.0439L4.98263 29.1761C4.55681 31.0923 4.23244 32.7568 4.01377 34.1626L7.96623 34.7774ZM8.8888 30.0374C9.3015 28.1508 9.78903 26.1558 10.352 24.052L6.48798 23.018C5.91097 25.1742 5.4085 27.2292 4.9812 29.1826L8.8888 30.0374ZM10.352 24.052C10.9175 21.9389 11.5128 19.8257 12.1379 17.7123L8.30213 16.5777C7.66723 18.7243 7.06251 20.871 6.48798 23.018L10.352 24.052ZM12.1304 17.737C12.7801 15.64 13.4423 13.6984 14.1164 11.9106L10.3736 10.4994C9.66768 12.3716 8.97986 14.39 8.30961 16.553L12.1304 17.737ZM14.1201 11.9006C14.7934 10.0856 15.4227 8.61875 16.0051 7.48175L12.4449 5.65825C11.7673 6.98125 11.0766 8.60438 10.3699 10.5094L14.1201 11.9006ZM15.8891 7.6794C16.0556 7.42965 16.169 7.27402 16.2367 7.18939L13.1133 4.69061C12.941 4.90598 12.7544 5.17034 12.5609 5.4606L15.8891 7.6794ZM16.0892 7.35421C15.9958 7.4476 15.8633 7.54591 15.6917 7.6174C15.5197 7.68906 15.3535 7.715 15.215 7.715V3.715C14.4685 3.715 13.7816 4.00499 13.2608 4.52578L16.0892 7.35421ZM15.215 7.715H19.49V3.715H15.215V7.715ZM18.7877 7.58766C18.8361 7.6058 18.8611 7.61846 18.868 7.62219C18.8751 7.62597 18.8578 7.61747 18.8256 7.59174L21.3244 4.46826C20.9649 4.18067 20.5681 3.98328 20.1923 3.84234L18.7877 7.58766ZM19.046 7.74499C18.8758 7.64288 18.7865 7.54041 18.7636 7.51287C18.7378 7.48195 18.7445 7.4834 18.7767 7.54129L22.2733 5.59871C22.0657 5.22508 21.7057 4.67601 21.104 4.31501L19.046 7.74499ZM18.7449 7.48175C19.3273 8.61875 19.9566 10.0856 20.6299 11.9006L24.3801 10.5094C23.6734 8.60438 22.9827 6.98125 22.3051 5.65825L18.7449 7.48175ZM20.6336 11.9106C21.3077 13.6984 21.9699 15.64 22.6196 17.7369L26.4404 16.553C25.7701 14.39 25.0823 12.3716 24.3764 10.4994L20.6336 11.9106ZM22.6196 17.737C23.2712 19.8399 23.8784 21.9576 24.4412 24.0903L28.3088 23.0697C27.7316 20.8824 27.1088 18.7101 26.4404 16.553L22.6196 17.737ZM24.443 24.097C25.006 26.2008 25.4935 28.1958 25.9062 30.0824L29.8138 29.2276C29.3865 27.2742 28.884 25.2192 28.307 23.063L24.443 24.097ZM25.9076 30.0889C26.3205 31.9466 26.6083 33.4936 26.7783 34.7402L30.7417 34.1998C30.5517 32.8064 30.2395 31.1434 29.8124 29.2211L25.9076 30.0889ZM26.7988 34.8622C26.8499 35.1175 26.8713 35.281 26.878 35.3715C26.8812 35.4152 26.8792 35.4193 26.8805 35.3935C26.8812 35.3793 26.8831 35.3506 26.889 35.3103C26.8947 35.2706 26.9056 35.2103 26.927 35.1356L30.7731 36.2344C30.9015 35.7848 30.8871 35.3474 30.867 35.076C30.8437 34.7615 30.7901 34.4225 30.7212 34.0778L26.7988 34.8622ZM26.927 35.1355C27.0145 34.8291 27.2283 34.4753 27.6075 34.2339C27.9462 34.0184 28.2491 34 28.355 34V38C28.7309 38 29.2513 37.9291 29.755 37.6086C30.2992 37.2622 30.6255 36.7509 30.773 36.2345L26.927 35.1355ZM28.355 34H23.72V38H28.355V34ZM23.72 34C23.7285 34 24.3558 33.9944 24.825 34.62L21.625 37.02C22.2742 37.8856 23.2315 38 23.72 38V34ZM24.94 34.791C24.9737 34.8473 24.995 34.891 25.0055 34.9137C25.0166 34.9376 25.0221 34.9521 25.0228 34.9538C25.0234 34.9555 25.015 34.9331 24.9988 34.8775C24.966 34.7652 24.9217 34.5871 24.8671 34.328L20.9529 35.152C21.0183 35.4629 21.0865 35.7498 21.1588 35.9975C21.2175 36.1989 21.3238 36.5386 21.51 36.849L24.94 34.791ZM24.8804 34.3973C24.7531 33.6653 24.5808 32.8212 24.3659 31.8695L20.4641 32.7505C20.6692 33.6588 20.8269 34.4347 20.9396 35.0827L24.8804 34.3973ZM24.3807 31.9414C24.199 30.9722 24.0314 30.1186 23.878 29.3821L19.962 30.1979C20.1086 30.9014 20.271 31.7277 20.4493 32.6786L24.3807 31.9414ZM23.8999 29.5072C23.8759 29.339 23.8319 29.0949 23.7364 28.8403C23.6784 28.6856 23.4247 28.0138 22.6794 27.6411L20.8906 31.2189C20.5193 31.0332 20.3 30.7753 20.1887 30.6163C20.0756 30.4547 20.0173 30.3147 19.9911 30.2447C19.9406 30.1101 19.9341 30.031 19.9401 30.0728L23.8999 29.5072ZM23.1992 28.0158C22.78 27.5965 22.3002 27.4607 22.0726 27.4101C21.8096 27.3517 21.5641 27.34 21.38 27.34V31.34C21.4059 31.34 21.3329 31.3433 21.2049 31.3149C21.137 31.2998 21.0237 31.2693 20.8878 31.2065C20.7524 31.144 20.5603 31.0337 20.3708 30.8442L23.1992 28.0158ZM21.38 27.34H13.37V31.34H21.38V27.34ZM13.0872 27.3601C12.9547 27.379 12.7947 27.4054 12.6374 27.4447C12.5606 27.4639 12.4409 27.4968 12.3066 27.5505C12.2226 27.5841 11.8985 27.7131 11.5958 28.0158L14.4242 30.8442C14.2615 31.0069 14.1059 31.1049 14.0177 31.1552C13.9225 31.2097 13.8421 31.2445 13.7922 31.2645C13.6953 31.3032 13.6244 31.3211 13.6076 31.3253C13.5703 31.3346 13.5753 31.331 13.6528 31.3199L13.0872 27.3601ZM11.5958 28.0158C11.3158 28.2958 11.1858 28.5966 11.164 28.6446C11.1142 28.754 11.0788 28.854 11.0564 28.9213C11.0101 29.06 10.9695 29.2107 10.9347 29.3499L14.8153 30.3201C14.8405 30.2193 14.8524 30.1825 14.8511 30.1862C14.85 30.1897 14.8462 30.2007 14.8399 30.2174C14.8339 30.2332 14.8225 30.2621 14.8054 30.2998C14.7896 30.3346 14.7594 30.3979 14.713 30.4752C14.6735 30.541 14.5809 30.6876 14.4242 30.8442L11.5958 28.0158ZM10.9206 29.4101C10.7709 30.099 10.5911 30.9232 10.3812 31.8826L14.2888 32.7374C14.4989 31.7768 14.6791 30.951 14.8294 30.2599L10.9206 29.4101ZM10.3714 31.93C10.1928 32.8531 10.0297 33.6686 9.88204 34.3771L13.798 35.1929C13.9503 34.4614 14.1172 33.6269 14.2986 32.69L10.3714 31.93ZM9.86721 34.4562C9.82747 34.6947 9.79388 34.8515 9.76977 34.9439C9.75792 34.9893 9.75315 35.0006 9.75791 34.9875C9.76065 34.9799 9.76831 34.9595 9.78184 34.9296C9.79491 34.9007 9.81849 34.8519 9.85501 34.791L13.285 36.849C13.4843 36.5168 13.5862 36.1608 13.6402 35.9536C13.7061 35.701 13.7625 35.4153 13.8128 35.1138L9.86721 34.4562ZM9.97 34.62C10.4392 33.9944 11.0665 34 11.075 34V38C11.5635 38 12.5208 37.8856 13.17 37.02L9.97 34.62ZM11.075 34H6.395V38H11.075V34ZM14.63 26.795H20.12V22.795H14.63V26.795ZM20.12 26.795C20.292 26.795 20.5617 26.7855 20.8526 26.7128C21.0371 26.6667 21.8415 26.4542 22.2689 25.5994L18.6911 23.8106C18.8983 23.3963 19.2016 23.1554 19.4116 23.0294C19.616 22.9068 19.7935 22.8545 19.8824 22.8322C20.0533 22.7895 20.158 22.795 20.12 22.795V26.795ZM22.1441 25.8144C22.4627 25.3365 22.525 24.8473 22.525 24.525C22.525 24.2007 22.4631 23.9157 22.403 23.7056L18.557 24.8044C18.5569 24.8043 18.525 24.6993 18.525 24.525C18.525 24.3527 18.5573 23.9835 18.8159 23.5956L22.1441 25.8144ZM22.418 23.761C22.0251 22.2194 21.6022 20.6186 21.1495 18.9588L17.2905 20.0112C17.7378 21.6514 18.1549 23.2306 18.542 24.749L22.418 23.761ZM21.1519 18.9675C20.6909 17.2465 20.2106 15.6794 19.7094 14.27L15.9406 15.61C16.3994 16.9006 16.8491 18.3635 17.2881 20.0025L21.1519 18.9675ZM19.7774 14.5061C19.7182 14.24 19.5926 13.8104 19.28 13.4084C18.9088 12.9312 18.2941 12.535 17.51 12.535V16.535C17.2347 16.535 16.9464 16.4698 16.6783 16.3279C16.418 16.1901 16.2382 16.0129 16.1225 15.8641C16.0102 15.7197 15.9497 15.5917 15.9194 15.5174C15.8883 15.4411 15.8759 15.3886 15.8726 15.3739L19.7774 14.5061ZM17.51 12.535H17.195V16.535H17.51V12.535ZM17.195 12.535C16.2864 12.535 15.7096 13.0714 15.4475 13.4084C15.1938 13.7346 15.0583 14.0806 14.9826 14.3075L18.7774 15.5725C18.7917 15.5294 18.7537 15.6729 18.605 15.8641C18.4479 16.0661 17.9836 16.535 17.195 16.535V12.535ZM14.9684 14.3518C14.7299 15.1269 14.4462 16.038 14.117 17.0853L17.933 18.2847C18.2638 17.232 18.5501 16.3131 18.7916 15.5282L14.9684 14.3518ZM14.102 17.1356C13.7978 18.2 13.4941 19.3085 13.1909 20.461L17.0591 21.479C17.3559 20.3515 17.6522 19.27 17.948 18.2344L14.102 17.1356ZM13.1909 20.461C12.8889 21.6085 12.6018 22.7265 12.3297 23.8149L16.2103 24.7851C16.4782 23.7135 16.7611 22.6115 17.0591 21.479L13.1909 20.461ZM12.2972 23.9712C12.2545 24.2275 12.1822 24.7662 12.3726 25.3375L16.1674 24.0725C16.2424 24.2977 16.2475 24.472 16.2475 24.5362C16.2475 24.6096 16.24 24.6452 16.2428 24.6288L12.2972 23.9712ZM12.4811 25.5994C12.9085 26.4542 13.713 26.6667 13.8974 26.7128C14.1883 26.7855 14.458 26.795 14.63 26.795V22.795C14.592 22.795 14.6967 22.7895 14.8676 22.8322C14.9565 22.8545 15.134 22.9068 15.3384 23.0294C15.5484 23.1554 15.8517 23.3963 16.0589 23.8106L12.4811 25.5994Z" fill="#FAC90F"/>
</g>
<defs>
<filter id="filter0_d_126_19" x="0.85498" y="0.714998" width="39.085" height="46.285" filterUnits="userSpaceOnUse" color-interpolation-filters="sRGB">
<feFlood flood-opacity="0" result="BackgroundImageFix"/>
<feColorMatrix in="SourceAlpha" type="matrix" values="0 0 0 0 0 0 0 0 0 0 0 0 0 0 0 0 0 0 127 0" result="hardAlpha"/>
<feOffset dx="3" dy="3"/>
<feGaussianBlur stdDeviation="4"/>
<feColorMatrix type="matrix" values="0 0 0 0 0 0 0 0 0 0 0 0 0 0 0 0 0 0 0.5 0"/>
<feBlend mode="normal" in2="BackgroundImageFix" result="effect1_dropShadow_126_19"/>
<feBlend mode="normal" in="SourceGraphic" in2="effect1_dropShadow_126_19" result="shape"/>
</filter>
</defs>
</svg>
