<svg width="30" height="31" viewBox="0 0 30 31" fill="none" xmlns="http://www.w3.org/2000/svg">
<path d="M28.9991 22.7089V27.0739C29.0007 27.4791 28.9204 27.8802 28.7633 28.2515C28.6063 28.6228 28.3759 28.9561 28.087 29.23C27.798 29.504 27.457 29.7125 27.0855 29.8423C26.7141 29.9722 26.3206 30.0204 25.9301 29.9839C21.5979 29.4974 17.4366 27.9675 13.7805 25.517C10.3789 23.2831 7.49497 20.3025 5.33347 16.787C2.9542 12.9912 1.47354 8.66948 1.01143 4.17206C0.976246 3.7697 1.02251 3.36418 1.14728 2.98132C1.27205 2.59845 1.47259 2.24663 1.73613 1.94826C1.99967 1.64988 2.32044 1.41149 2.67801 1.24825C3.03558 1.08502 3.42212 1.00052 3.81301 1.00014H8.03651C8.71974 0.993191 9.3821 1.24324 9.90014 1.70368C10.4182 2.16413 10.7566 2.80355 10.8522 3.50275C11.0304 4.89966 11.361 6.27124 11.8377 7.59133C12.0271 8.11211 12.0681 8.67809 11.9558 9.22222C11.8435 9.76634 11.5826 10.2658 11.2041 10.6614L9.41619 12.5093C11.4203 16.1519 14.3386 19.168 17.8632 21.2393L19.6511 19.3914C20.0339 19.0002 20.5172 18.7306 21.0436 18.6146C21.5701 18.4986 22.1178 18.5409 22.6217 18.7367C23.8989 19.2293 25.226 19.571 26.5777 19.7552C27.2615 19.8549 27.8861 20.2109 28.3326 20.7555C28.779 21.3001 29.0163 21.9953 28.9991 22.7089Z" stroke="white" stroke-width="2" stroke-linecap="round" stroke-linejoin="round"/>
</svg>
