<svg width="30" height="28" viewBox="0 0 30 28" fill="none" xmlns="http://www.w3.org/2000/svg">
<g clip-path="url(#clip0_247_15)">
<path d="M1.83755 12.1966C1.83755 12.1966 15.1099 6.04202 19.7137 3.87777C21.4814 3.00982 27.4634 0.23687 27.4634 0.23687C27.4634 0.23687 30.2197 -0.980521 29.99 1.97278C29.9101 3.19017 29.3009 7.4285 28.6818 12.0163C27.763 18.509 26.7643 25.6105 26.7643 25.6105C26.7643 25.6105 26.6145 27.6056 25.3063 27.9438C23.998 28.2932 21.8509 26.7264 21.4714 26.3882C21.1618 26.129 15.719 22.2288 13.7217 20.3238C13.1824 19.8053 12.5732 18.7683 13.8016 17.5509C16.5579 14.699 19.8635 11.1483 21.8509 8.89387C22.7696 7.85684 23.6884 5.43333 19.8535 8.37536C14.4108 12.6137 9.03795 16.604 9.03795 16.604C9.03795 16.604 7.80959 17.472 5.51265 16.6942C3.21572 15.9164 0.529299 14.8794 0.529299 14.8794C0.529299 14.8794 -1.30825 13.5831 1.83755 12.1966Z" fill="#2CB5E5"/>
</g>
<defs>
<clipPath id="clip0_247_15">
<rect width="30" height="28" fill="white"/>
</clipPath>
</defs>
</svg>
