<svg width="35" height="35" viewBox="0 0 35 35" fill="none" xmlns="http://www.w3.org/2000/svg">
<g clip-path="url(#clip0_247_17)">
<path d="M17.5 35C27.165 35 35 27.165 35 17.5C35 7.83502 27.165 0 17.5 0C7.83502 0 0 7.83502 0 17.5C0 27.165 7.83502 35 17.5 35Z" fill="url(#paint0_linear_247_17)"/>
<path opacity="0.8" fill-rule="evenodd" clip-rule="evenodd" d="M23.2912 14.0293C24.8523 15.1475 26.7722 15.8015 28.8397 15.8015V11.8247C28.4494 11.8247 28.0591 11.7825 27.6793 11.6981V14.831C25.6118 14.831 23.7025 14.177 22.1308 13.0589V21.1707C22.1308 25.2319 18.8397 28.523 14.7785 28.523C13.2595 28.523 11.8566 28.0694 10.6857 27.2783C12.0253 28.639 13.8819 29.4935 15.9388 29.4935C20 29.4935 23.2912 26.2023 23.2912 22.1412V14.0293ZM24.7258 10.0209C23.9241 9.14537 23.4072 8.02723 23.2912 6.77195V6.26562H22.1836C22.4578 7.8479 23.4072 9.19811 24.7258 10.0209ZM13.249 24.1665C12.8059 23.5863 12.5633 22.869 12.5633 22.1306C12.5633 20.2741 14.0717 18.7656 15.9283 18.7656C16.2764 18.7656 16.6139 18.8184 16.9515 18.9239V14.8627C16.5612 14.8099 16.1814 14.7888 15.7912 14.7994V17.9639C15.4641 17.8585 15.116 17.8057 14.7679 17.8057C12.9114 17.8057 11.403 19.3141 11.403 21.1707C11.403 22.4787 12.1519 23.6179 13.249 24.177V24.1665Z" fill="#FF1753"/>
<path fill-rule="evenodd" clip-rule="evenodd" d="M22.1308 13.0592C23.692 14.1773 25.6118 14.8313 27.6793 14.8313V11.6984C26.5295 11.4558 25.5063 10.8545 24.7363 10.0106C23.4177 9.18786 22.4789 7.83765 22.1941 6.25537H19.2932V22.1414C19.2932 23.998 17.7848 25.4959 15.9283 25.4959C14.8312 25.4959 13.8608 24.979 13.2489 24.1668C12.1519 23.6182 11.403 22.479 11.403 21.1604C11.403 19.3039 12.9114 17.7955 14.7679 17.7955C15.1266 17.7955 15.4641 17.8482 15.7911 17.9537V14.7891C11.8038 14.8735 8.59705 18.133 8.59705 22.1414C8.59705 24.1457 9.39873 25.96 10.6962 27.2786C11.8671 28.0592 13.27 28.5233 14.789 28.5233C18.8502 28.5233 22.1413 25.2322 22.1413 21.171V13.0592H22.1308Z" fill="white"/>
<path fill-rule="evenodd" clip-rule="evenodd" d="M27.6688 11.6984V10.8545C26.6245 10.8545 25.6118 10.5697 24.7257 10.0106C25.5063 10.865 26.5401 11.4557 27.6688 11.6984ZM22.1836 6.25533C22.1519 6.10765 22.1414 5.94942 22.1203 5.80174V5.29541H18.1224V21.1815C18.1224 23.0275 16.6139 24.5359 14.7574 24.5359C14.2089 24.5359 13.7025 24.4093 13.249 24.1773C13.8608 24.979 14.8312 25.5064 15.9283 25.5064C17.7848 25.5064 19.2827 24.0085 19.2933 22.152V6.25533H22.1941H22.1836ZM15.7806 14.7891V13.8925C15.443 13.8503 15.1055 13.8186 14.7679 13.8292C10.7068 13.8292 7.41562 17.1203 7.41562 21.1815C7.41562 23.7237 8.71309 25.9705 10.6751 27.2891C9.37764 25.96 8.57596 24.1456 8.57596 22.152C8.57596 18.1435 11.7827 14.884 15.77 14.7996L15.7806 14.7891Z" fill="#00C9D0"/>
</g>
<defs>
<linearGradient id="paint0_linear_247_17" x1="0" y1="17.5" x2="35" y2="17.5" gradientUnits="userSpaceOnUse">
<stop stop-color="#23004A"/>
<stop offset="0.96" stop-color="#010003"/>
<stop offset="1"/>
</linearGradient>
<clipPath id="clip0_247_17">
<rect width="35" height="35" fill="white"/>
</clipPath>
</defs>
</svg>
