<svg width="24" height="28" viewBox="0 0 24 28" fill="none" xmlns="http://www.w3.org/2000/svg">
<g clip-path="url(#clip0_247_8)">
<path d="M23.991 11.3289C23.758 11.3468 23.534 11.3647 23.301 11.3647C20.7737 11.3647 18.4167 10.094 17.0366 7.9821V19.4899C17.0366 24.1879 13.2188 28 8.51382 28C3.80881 28 0 24.1879 0 19.4899C0 14.7919 3.81777 10.9888 8.52278 10.9888C8.70202 10.9888 8.87229 11.0067 9.05153 11.0157V15.2036C8.88125 15.1857 8.70202 15.1499 8.52278 15.1499C6.12099 15.1499 4.17625 17.0917 4.17625 19.4899C4.17625 21.8881 6.12099 23.83 8.52278 23.83C10.9246 23.83 13.0485 21.9418 13.0485 19.5436L13.0934 0H17.1083C17.4847 3.59732 20.3883 6.40716 24 6.66667V11.3289" fill="white"/>
</g>
<defs>
<clipPath id="clip0_247_8">
<rect width="24" height="28" fill="white"/>
</clipPath>
</defs>
</svg>
